<?xml version="1.0" encoding="utf-8"?>
<svg version="1.0" xmlns="http://www.w3.org/2000/svg" width="1000" height="1000" viewBox="0 0 10000 10000"><path d="M4590 9989c-1077-93-2048-502-2870-1208-140-121-435-420-549-556C489 7406 100 6457 10 5395c-13-155-13-635 0-790 90-1062 479-2011 1161-2830 114-136 409-435 549-556C2548 508 3516 102 4605 10c155-13 635-13 790 0 1089 92 2057 498 2885 1209 140 121 435 420 549 556 682 819 1071 1768 1161 2830 13 155 13 635 0 790-92 1089-498 2057-1209 2885-121 140-420 435-556 549-819 682-1768 1071-2830 1161-139 11-666 11-805-1z" fill="#104392"/><g fill="#fefefe"><path d="M4590 9989c-1077-93-2048-502-2870-1208-140-121-435-420-549-556C489 7406 100 6457 10 5395c-13-155-13-635 0-790 90-1062 479-2011 1161-2830 114-136 409-435 549-556C2548 508 3516 102 4605 10c155-13 635-13 790 0 1089 92 2057 498 2885 1209 140 121 435 420 549 556 682 819 1071 1768 1161 2830 13 155 13 635 0 790-92 1089-498 2057-1209 2885-121 140-420 435-556 549-819 682-1768 1071-2830 1161-139 11-666 11-805-1zm950-178c981-116 1861-498 2609-1134 143-122 435-416 552-557 483-582 810-1217 987-1915 364-1435 65-2939-817-4110-194-259-491-575-722-772C7401 687 6531 309 5539 189c-158-20-233-23-539-23s-381 3-539 23c-898 108-1678 421-2385 954-342 258-683 601-947 952-1291 1714-1291 4096 0 5810 194 259 491 575 722 772 796 677 1754 1071 2801 1153 194 15 689 4 888-19z"/><path d="M4750 9719c-1568-81-2998-945-3810-2299-533-891-758-1962-630-3001C489 2977 1317 1704 2567 949c882-533 1952-764 2978-643 1463 172 2757 1009 3515 2274 533 891 758 1962 630 3001-179 1442-1007 2715-2257 3470-664 401-1412 627-2213 669-214 11-243 11-470-1zm429-185c2-2-3-79-11-172-9-92-15-168-14-169 1-2 29 74 61 167l58 171 61-6c33-3 75-8 92-11l31-4 28-176c15-96 29-173 30-172 2 2 8 64 14 138s14 150 17 169l5 34 81-6c45-4 83-9 86-12 8-7-47-638-56-647-4-4-60-2-124 4-93 9-119 14-122 27-3 9-19 95-36 191-40 229-36 208-43 190-3-8-34-91-68-185-34-93-67-175-73-181-12-12-224 2-239 16-8 7 38 607 49 639 3 10 21 12 87 6 45-4 84-9 86-11zm-562-259c12-132 22-244 22-249 1-5 40-5 90-2l90 7 6-33c4-18 5-54 3-78l-3-45-268-23c-148-13-272-21-275-17-3 3-6 38-6 78l-1 72 84 7c46 4 84 8 86 10s-5 93-16 203c-10 110-18 221-19 247 0 52 0 52 105 61 87 8 77 30 102-238zm-590 117c-4-21 0-61 8-92 17-63 20-156 5-165-13-8-13-35 1-35 24 0 72-45 90-84 22-49 24-126 5-164-17-33-51-65-92-85-34-17-363-117-385-117-10 0-41 96-102 308-48 169-87 310-87 314s39 19 86 33c62 19 89 23 94 15 4-6 20-56 35-111l28-101 36 7c60 11 106 37 109 64 2 14-4 62-14 108-10 50-14 87-8 92 13 13 134 49 168 50 28 1 28 0 23-37zm2249-17c70-20 139-67 171-116 22-33 28-56 31-108 3-57-5-95-58-281-34-118-63-216-65-218-7-8-167 43-172 54-3 7 20 101 51 208 58 204 66 255 41 279-22 22-82 40-110 33-35-9-47-37-111-262-31-109-58-202-60-206-4-7-136 27-165 43-15 8-10 32 45 223 39 134 73 232 92 263 55 91 180 127 310 88zm609-242c41-21 75-44 75-52s-33-78-74-156l-74-142 161 103c89 57 167 104 174 104 17 0 173-78 173-87 0-8-280-554-292-570-8-9-29-3-89 27-43 22-79 43-79 46s36 72 79 155c44 83 76 149 73 147-4-2-74-48-157-102-82-55-157-101-166-103-22-6-181 75-177 90 5 20 288 577 293 577 3 0 38-17 80-37zm-3670-66c163-83 254-309 186-461-27-62-100-137-163-169-185-93-368-27-459 167-53 113-58 222-13 307 37 73 151 155 247 180 57 14 148 4 202-24zm4455-395c182-143 230-216 217-337-11-107-120-255-225-307-68-33-161-32-228 3-79 41-294 211-290 230 4 17 385 509 395 509 3 0 62-44 131-98zm-2287-18c503-49 1005-212 1453-470 272-157 521-349 760-588 182-182 318-346 450-541 339-502 543-1062 609-1672 22-197 22-569 0-766-76-710-340-1352-786-1913-130-164-408-442-569-570-675-535-1449-806-2300-806s-1625 271-2300 806c-161 128-439 406-569 570-446 561-710 1203-786 1913-22 197-22 569 0 766 77 712 339 1349 789 1917 127 160 406 439 566 566 776 615 1695 885 2683 788zm-2863-34c102-52 209-206 218-315 5-65-17-137-58-187-17-20-89-82-161-139-110-86-133-100-143-88-51 55-380 487-380 500-2 33 260 223 344 250 41 14 133 3 180-21zM1409 7194c63-33 96-70 129-143 21-45 24-64 20-125-6-83-29-134-85-188-179-173-483-49-483 198 0 134 69 233 197 280 60 23 159 13 222-22zm7451 0c99-54 150-141 150-258 0-247-304-371-483-198-55 52-79 106-85 183-5 75 5 115 48 182 76 120 242 161 370 91zM799 5655c60-30 85-81 110-224 11-60 22-115 26-121 11-18 54-11 65 11 7 11 14 45 17 74 5 48 3 56-20 79-14 14-36 26-48 26-21 0-21 2-14 83 4 45 8 84 10 86 10 10 97-13 127-32 67-46 98-117 98-228 0-92-23-162-71-214-49-53-92-69-170-63-108 8-146 59-179 243-12 66-24 123-26 127-3 5-15 8-28 8-29 0-46-36-46-95 0-48 16-71 57-81 24-6 25-10 19-52-3-25-6-63-6-85v-39l-37 7c-77 14-133 55-169 125-25 48-26 187-1 251 21 55 71 105 123 125 44 16 121 11 163-11zm8546-49c118-50 169-197 110-320-39-82-157-130-263-106-103 23-174 129-156 233l6 40-33-19c-26-15-35-28-37-53-3-28 1-34 27-44 23-9 31-18 31-37 0-14 3-49 7-79l6-54-46 5c-121 14-201 141-167 266 13 52 69 116 124 144 92 47 305 60 391 24zm-8211-657c4-44 6-82 4-84s-35-7-73-10c-39-3-85-8-104-11l-34-5 7-84c11-132-15-195-97-236-51-27-142-35-193-19-47 15-101 63-120 107-12 28-49 361-41 370 6 5 513 50 583 52l61 1 7-81zm8177 57c114-26 176-89 186-187 19-187-125-280-384-250-53 6-117 21-144 32-89 39-135 116-127 214 12 142 105 204 308 205 58 0 130-6 161-14zm-8245-633c76-26 147-103 173-188 41-132 21-227-67-315-66-66-143-98-257-107-99-8-168 14-233 72-65 59-94 125-100 231-5 90 11 141 62 202 84 99 290 150 422 105zm7863-343c72-93 136-172 141-175 6-4 83 34 173 83 89 50 163 89 164 88s-12-50-29-109l-31-108-126-66-125-67 91-25c50-14 94-29 98-32 9-10-36-159-49-159-11 0-609 169-613 174-3 3 42 154 48 160 2 3 50-8 104-24 93-27 135-31 135-11 0 5-40 59-90 121-49 62-90 116-90 121 0 22 54 199 61 199 4 0 66-76 138-170zm-7557-355c15-37 28-71 28-75s-47-27-105-50c-118-48-113-37-69-137 27-63 35-64 142-27 40 14 83 24 94 22 15-2 29-24 53-85l33-82-28-9c-18-7-31-7-38 0-6 6-33 0-78-18-43-18-89-29-122-30-49-1-55-3-77-36-67-99-236-103-307-8-10 14-50 102-89 195-54 131-67 172-57 178 26 17 573 236 582 233 6-1 23-33 38-71zm7417-236c17-6 31-14 31-17-1-4-18-38-40-77l-39-69-46 3c-57 3-91-17-111-66-20-47-5-91 48-138 109-99 234-100 284-3 19 37 12 73-21 108l-24 25 37 69c20 39 42 72 49 74s32-17 57-42c104-104 98-268-15-391-49-53-78-70-143-85-139-31-348 72-419 205-33 62-31 183 5 251 60 115 135 164 248 164 37 0 81-5 99-11zm-7092-442c35-61 39-74 27-83-8-6-102-62-209-124-107-61-195-116-195-122 0-5 19-41 41-79 23-38 40-71 38-73-32-24-134-77-136-70-2 5-62 110-133 233-72 123-129 225-128 226 2 1 32 19 67 39 50 29 66 34 73 24 4-7 24-41 44-76s41-61 47-59c7 3 102 57 212 121 110 63 202 116 205 116s24-33 47-73zm6714-141c-38-48-181-250-181-256 0-15 74-59 85-50 6 5 44 56 85 114s78 105 81 106c13 1 114-83 113-94-1-6-36-59-78-117s-76-108-76-112c0-3 13-15 29-26l28-20 89 124c49 68 93 124 97 125 5 0 35-19 68-41 38-27 56-46 51-53-5-6-69-94-142-196s-135-187-136-188c-6-9-523 374-519 385 2 6 68 99 146 206l141 195 64-46c41-29 61-49 55-56zm-6537-418l86-107-61-50-61-49-27 31c-15 18-55 67-90 110l-63 78 29 22c15 12 41 34 58 49 16 15 33 26 36 25 4-1 46-50 93-109zm6146-70c57-30 100-84 107-138 3-23 11-43 17-45s24-6 40-10c41-9 101-72 116-122 10-34 10-51 0-89-11-39-37-73-148-191l-134-144-234 227-234 227 107 111c121 125 164 162 208 182 45 20 105 17 155-8zm-5614-223c61-27 122-85 149-140 37-77 30-201-15-269l-17-27-66 55-65 55 16 44c15 41 15 46-4 78-11 18-35 42-53 53-28 16-38 17-73 7-72-22-152-112-172-193-13-57 47-138 103-138 14 0 40 8 57 19l30 18 68-55 68-56-28-24c-114-95-273-83-384 28-112 112-114 270-7 412 116 154 248 199 393 133zm5118-166c-2-9 11-38 29-65 49-71 67-109 67-142 0-24 7-31 49-49 121-51 156-204 68-299-36-39-308-234-319-228-19 12-370 527-362 532 6 4 37 26 71 49l62 43 66-95c42-61 71-93 78-88 48 28 117 86 117 98 0 8-20 47-44 87-66 109-67 105 17 164l72 51 17-21c10-11 15-28 12-37zm-4577-250c130-82 192-126 189-135-3-8-21-39-41-69l-35-55-107 66c-60 36-112 70-117 75-6 5-15 9-21 9-7 0-69-92-139-204l-127-205-74 46c-62 38-73 48-65 63 7 13 182 294 307 493 13 20 26 37 29 37s94-55 201-121zm4023-139c16-33 30-63 30-68 0-4-65-41-144-82l-143-75 20-42c12-24 25-43 29-43 5 0 62 27 128 60s123 60 128 60c8 0 76-130 70-135-2-2-59-31-128-65s-126-64-128-65c-3-3 5-17 34-63 1-2 65 29 143 67l141 71 35-70 35-70-219-110-220-109-145 285c-80 157-146 287-146 290 0 4 431 223 442 223 4 1 21-26 38-59zm-3488-128c73-36 97-55 132-107 21-31 26-49 26-103 0-61-7-80-97-283l-96-217-76 34c-41 19-77 37-80 39-2 3 33 88 78 190 104 235 105 238 91 265-13 25-67 60-92 60-39 0-76-56-158-245-46-104-85-192-86-194-4-4-154 61-159 69s178 413 204 449c13 18 47 44 75 58 69 33 150 28 238-15zm2961-137l26-75-136-42c-74-23-137-48-140-55-3-6 27-108 66-226s71-219 71-225c0-13-152-64-161-54-4 4-51 142-104 307-74 229-94 300-84 304 67 24 417 139 426 140 6 1 23-33 36-74zm-2476-45c70-16 154-37 186-46 66-20 133-72 153-121 31-73 6-174-55-226-28-23-31-29-20-48 18-34 6-122-22-164-29-43-91-75-145-75-55 0-366 73-371 87-3 6 25 141 62 300 70 307 74 323 80 323 2 0 61-13 132-30zm1592-172c6-35 13-82 17-106 6-40 9-43 33-38 159 32 213 28 269-19 57-47 91-178 67-256-12-40-54-88-93-108-33-16-301-71-349-71-16 0-25 35-72 308-29 169-54 311-55 316-1 9 95 32 145 35 25 1 28-3 38-61zm-230 30c0-7-49-155-107-328l-107-315-90-3-90-3-113 303c-62 167-115 313-118 326-6 22-5 22 84 22h90l22-60 22-60h185l17 59c9 33 22 62 29 64 7 3 49 6 95 6 60 1 82-2 81-11z"/><path d="M3807 8974c-47-15-48-16-41-47 10-47 22-77 32-77 19 0 119 33 140 46 27 18 29 55 4 77-22 21-71 21-135 1zm-802-58c-16-7-41-26-55-41-67-72 12-274 119-306 32-10 45-8 84 9 59 26 82 62 81 127-1 104-97 226-176 225-13-1-36-7-53-14zm4533-453c-30-38-77-98-106-134l-52-67 53-36c94-65 165-43 239 73 49 78 35 143-46 205l-35 26-53-67zm-2773 91c-207-20-278-29-395-50-354-65-656-166-971-325-926-467-1601-1311-1853-2314-75-298-101-521-101-865 0-290 9-397 51-630 65-353 166-655 325-971 346-685 893-1232 1578-1578 380-192 773-309 1216-362 146-18 624-18 770 0 443 53 836 170 1216 362 685 346 1232 893 1578 1578 192 380 309 773 362 1216 18 146 18 624 0 770-107 891-506 1670-1156 2258-542 490-1214 796-1957 893-116 15-569 27-663 18zm-83-720c110-31 183-122 216-268 21-93 23-665 3-765-28-142-79-224-165-265-61-29-163-41-239-28-153 25-230 102-263 265-20 96-29 504-16 667 15 179 39 249 110 320 44 43 69 60 112 72 72 21 170 22 242 2zm924-24c103-50 153-138 174-302 13-109 13-549-1-663-21-168-69-254-171-304-116-57-282-50-381 15-45 30-92 100-113 169-46 154-40 420 13 537 32 72 95 130 158 148 66 18 174 9 221-20l37-23-5 94c-8 146-47 202-128 184-33-7-60-50-60-95 0-19-6-20-120-20h-120v43c0 181 127 282 343 273 74-3 98-9 153-36zm1694-1525c152-37 298-142 379-270 112-177 170-438 171-762v-163h-550v88c-1 125-17 331-31 388-29 117-84 174-174 182-70 6-116-11-159-58-67-74-81-168-97-618-17-510 7-1077 51-1187 64-165 271-180 350-25 29 58 51 178 57 313l6 127h550l-7-127c-26-484-161-776-416-901-131-64-191-77-365-77-176 0-224 10-352 71-190 91-317 257-377 495-54 214-61 320-61 989s7 775 61 989c78 306 273 501 559 557 89 17 315 11 405-11zm-4526-27c3-13 19-131 36-263s33-252 36-267l6-28h484l17 133c10 72 27 203 39 290l21 157h619l-6-27c-3-16-130-685-281-1488-152-803-279-1470-282-1483l-5-22-367 2-366 3-281 1470c-155 809-285 1487-288 1508l-6 37h620l4-22zm2428-582c255-49 435-206 527-461 53-146 65-237 65-460 0-163-4-218-21-295-64-297-193-436-627-675-158-87-234-153-277-241-28-56-33-78-37-162-5-107 5-160 41-213 37-54 82-79 145-79 131 0 189 86 207 308l7 82h528v-97c0-312-109-561-302-690-228-152-622-162-854-21-175 105-287 285-329 525-19 111-19 368 0 497 33 219 93 356 204 467 93 92 160 139 360 246 223 121 285 172 339 279 58 115 47 298-24 391-36 48-79 66-151 67-135 0-198-92-211-312l-7-107-284-3-284-2 6 137c13 301 82 495 228 640 91 91 237 161 389 186 62 11 294 6 362-7z"/><path d="M4529 7639c-53-20-54-29-54-465 0-393 0-403 21-431 25-34 82-43 119-19 43 28 47 71 43 474-4 412-5 422-61 442-34 12-33 12-68-1zm852-456c-28-23-41-98-41-229 0-118 14-195 38-217 46-39 111-25 137 30 22 47 31 223 17 317-14 85-38 116-93 116-20 0-46-8-58-17zM2917 5153c-3-7 167-1185 173-1203 1-3 39 252 85 565 46 314 86 587 89 608l6 37h-174c-96 0-177-3-179-7zm-604 3292c-94-47-94-43 18-185 54-69 104-125 112-125 16 0 67 42 90 75 9 13 17 41 17 60 0 60-79 165-143 189-37 14-36 15-94-14zm6921-2985c-46-10-54-18-54-55 0-40 29-65 75-65 58 0 95 53 67 97-12 19-55 30-88 23zM691 4823l-43-4 6-60c10-90 11-90 70-87l51 3v75c0 84 3 81-84 73zm8369 27c-25-3-51-9-57-13-17-11-17-62 0-76 38-31 299-39 333-10 9 7 14 25 12 43-2 26-9 33-38 42-43 14-189 22-250 14zM885 4211c-84-21-145-80-145-141 0-49 13-82 41-109 34-32 155-30 226 4 69 32 96 73 90 138-8 92-94 136-212 108zm118-779c-23-9-44-20-48-24-3-3 8-40 25-82 33-78 53-96 88-77 44 23 45 35 12 120-17 45-32 81-33 80-1 0-21-8-44-17zm6834-1271l-62-60 34-35c19-20 40-36 46-36 14 0 99 88 115 118 9 18 9 27-2 40-37 47-59 43-131-27zm183-186l-54-55 29-30 29-30 33 32c18 18 45 49 59 70 22 31 24 40 14 53-23 28-54 17-110-40zm-542-422l-67-46 17-29c37-64 44-65 116-13 50 35 66 53 66 71 0 26-32 64-53 64-7 0-43-21-79-47zm-3528-484c-7-27-11-51-9-53 15-10 159-35 173-30 10 4 22 18 27 32 16 43-10 68-90 86-39 9-74 16-79 16-6 0-15-23-22-51zm-55-235c-8-45-3-48 82-64 74-14 93-9 93 24 0 29-15 38-85 55-27 7-57 14-66 17-13 3-18-4-24-32zm1757-16c-33-7-42-13-38-26 2-9 8-37 11-60l7-44 47 7c80 12 96 24 95 74-1 62-24 71-122 49zm-672 45c0-15 34-113 40-113 3 0 13 27 22 60l16 60h-39c-21 0-39-3-39-7z"/></g></svg>