<?xml version="1.0" encoding="utf-8"?>
<svg data-name="Ebene 1" xmlns="http://www.w3.org/2000/svg" width="283.5" height="283.5" viewBox="0 0 283.5 283.5"><path d="M141.77 0C219.83 0 283.5 63.67 283.5 141.73S219.83 283.5 141.77 283.5 0 219.79 0 141.73 63.7 0 141.77 0" fill="#2d4493"/><path d="M141.77 36.85A104.612 104.612 0 01217 68.75l18.74-17.25a130.06 130.06 0 00-94-40.15C70 11.34 11.37 69.91 11.37 141.73s58.63 130.4 130.4 130.4 130.39-58.58 130.39-130.4q0-5.73-.5-11.34H141.77v25.52h103.91c-7 51.1-51 90.7-103.91 90.7a104.88 104.88 0 010-209.76" fill="#ca1337"/><path d="M138.27 70.73h6.45V45.2h-5.07a4.57 4.57 0 01-1.85 3.58 8.9 8.9 0 01-5 1.12h-.52v4.06h6zM237.85 168.2l-16.37 4.24-5.87-12.53-2.62 6.81 5.43 11.12-8.45-3.24-2.15 5.58 22.16 8.51 2.14-5.58-6.96-2.68-1.18-2.64 11.27-2.82 2.6-6.77zM154.67 189.5a2.7 2.7 0 01-1.81-.58 3.477 3.477 0 01-1-1.81h-6.07a7.429 7.429 0 002.58 5.26 8.919 8.919 0 005.95 1.92 9.861 9.861 0 008.26-3.77q2.94-3.761 2.94-10.62 0-6.671-2.72-10.25a10.063 10.063 0 00-17.589 4.691 9.051 9.051 0 000 1.579 8.839 8.839 0 002.3 6.44 8.378 8.378 0 006.27 2.35 7.441 7.441 0 002.65-.47 8.109 8.109 0 002.4-1.41 11 11 0 01-1.28 5 3.191 3.191 0 01-2.881 1.67zm3-10.89a3.591 3.591 0 01-5.23 0 4.859 4.859 0 01-.93-3.18 5 5 0 01.93-3.22 3.53 3.53 0 014.987-.223c.078.071.152.145.223.223a4.9 4.9 0 01.93 3.18 5 5 0 01-.88 3.2zM215.59 194.5a4.421 4.421 0 011.34 3 5 5 0 01-1.23 3.2 4.6 4.6 0 01-3.95 1.93 11 11 0 01-8.55-6.79 4.751 4.751 0 01.89-4.41 5.089 5.089 0 012.57-1.89 4.356 4.356 0 013 .33l3.51-4.49a8.819 8.819 0 00-6.81-1.36 10.676 10.676 0 00-6.13 4.15 11.39 11.39 0 00-2.65 9 12.857 12.857 0 005.25 8.22 12.477 12.477 0 009 3 11 11 0 007.85-4.52 10.493 10.493 0 002.51-7 10.252 10.252 0 00-3.14-6.73zM136.49 193.5v-5.37h2.86v-4.9h-2.86v-16.4h-7.6l-10.35 16.06v5.2h11.39v5.41zm-13.2-10.12l6.8-10.49v10.49zM158.41 112.68a12.325 12.325 0 008.29-2.75 12 12 0 003.93-7.75H164a5.243 5.243 0 01-1.8 3.39 5.9 5.9 0 01-3.83 1.17 5.38 5.38 0 01-4.62-2.25 10.51 10.51 0 01-1.64-6.32 10.685 10.685 0 011.73-6.44 5.56 5.56 0 014.71-2.36 5.9 5.9 0 013.59 1 5.108 5.108 0 011.86 3h6.67a10.333 10.333 0 00-3.65-7.26 12.471 12.471 0 00-8.2-2.61 13.318 13.318 0 00-10.17 4q-3.791 4-3.8 10.76a14.7 14.7 0 003.73 10.46 12.9 12.9 0 009.83 3.96zM180.83 221.96a5.672 5.672 0 00-3.61-.77 5.511 5.511 0 001.9-2.7 6.21 6.21 0 00-3.55-7c-1.57-.52-3.66-.32-6.27.58l-10.89 3.75 7.73 22.44 8.77-3a35.03 35.03 0 004.52-1.83 8.412 8.412 0 002.26-1.7 6.369 6.369 0 001.6-3.19 7.3 7.3 0 00-.31-3.71 5.35 5.35 0 00-2.15-2.87zm-15.36-3.46l4.86-1.67a3.4 3.4 0 012.16-.16 2.309 2.309 0 011.05 3.2 3.747 3.747 0 01-2 1.29l-4.62 1.59zm11.65 10.4a5.616 5.616 0 01-2.68 1.56l-4.34 1.49-1.7-5 4.92-1.69a3.91 3.91 0 012.54-.19 2.76 2.76 0 011.312 3.676c-.017.035-.034.07-.052.1zM152.82 64.37h6.68v6.36h-6.68zM150.92 216.62l.53 6c.1 1.19.24 2.56.43 4.12s.38 3.23.63 5c-.69-1.16-1.41-2.33-2.17-3.52s-1.56-2.37-2.4-3.57l-5.15-7.38-6.54.57 2.06 23.65 5.86-.52-.62-7.12c-.09-1-.22-2.2-.39-3.53s-.38-2.75-.63-4.28c.83 1.3 1.62 2.51 2.37 3.62s1.43 2.12 2.06 3l5.34 7.59 6.53-.57-2.07-23.64zM111.44 210.5l-8.54 9.83c-.74.82-1.32 1.49-1.76 2s-.81 1-1.12 1.35c.24-1 .5-2.22.78-3.72.09-.47.16-.81.2-1l2.41-12.44-5.63-2.8-3.24 24.94 5 2.46L117 213.31zM124.06 101.42h11.15v-5.75h-11.15v-5.75h12.85v-5.76h-19.92v27.75h7.07v-10.49zM194.18 220.28l-2.98-4.1 8.84-6.42-2.79-3.85-8.84 6.43-2.46-3.4 9.67-7.03-2.86-3.93-14.59 10.6 13.95 19.2 14.9-10.83-2.85-3.93-9.99 7.26zM111.77 236.31l17.88 4.46 1.17-4.71-11.98-2.98 1.23-4.92 10.6 2.64 1.15-4.61-10.6-2.64 1.01-4.07 11.61 2.89 1.17-4.72-17.49-4.36-5.75 23.02zM62.61 174.88l-4.26 1.62 1.89 5a4.668 4.668 0 01-3.43-.54 5.545 5.545 0 01-2.27-2.9 5.078 5.078 0 01.38-4.69 8.668 8.668 0 014.55-3.45 9.13 9.13 0 015.82-.51 5.06 5.06 0 013.51 3.09 5.223 5.223 0 01.31 3 4.6 4.6 0 01-1.53 2.49l2.09 5.51a9.289 9.289 0 004.24-5.32 10.888 10.888 0 00-.51-7.18 11.62 11.62 0 00-6.45-7 13 13 0 00-9.9.24 14.671 14.671 0 00-4.34 2.53 11.069 11.069 0 00-2.84 3.62 10 10 0 00-1.06 4.11 10.618 10.618 0 00.74 4.28 9.624 9.624 0 002.4 3.69 8.435 8.435 0 003.73 2L53 185.96l1.36 3.54 12.08-4.64zM94.07 206.96l3.38-3.5-12.97-12.53L67.99 208l13.25 12.8 3.37-3.49-8.88-8.58 3.52-3.65 7.86 7.6 3.3-3.42-7.86-7.6 2.91-3.01 8.61 8.31zM59.087 196.204l19.438-13.611 3.476 4.964-19.438 13.61z" fill="#ecb11c"/></svg>