<?xml version="1.0" encoding="UTF-8"?>
<svg width="287" height="349" version="1.1" viewBox="0 0 287 349" xmlns="http://www.w3.org/2000/svg">
 <g transform="matrix(.33807 0 0 .33807 1.3691 1.4511)">
  <g fill="none" stroke="#e27f7f" stroke-width="2">
   <path d="m17.69 112.58q-0.4 197.3 0 394.61c0.11 54.71 2.1 109.69 11.25 163.72 9.52 56.2 29.58 107.53 65.23 152.44 28.57 36 63.94 66.1 101.75 91.98 48.2 33 96.65 62.27 150.85 79.59 53.14 16.97 111.04 14.93 163.18-4.46q34.38-12.78 68.6-32.17c66.36-37.6 133.06-83.39 178.01-144.73 26.29-35.87 43.74-77.33 53.29-120.9 12.58-57.36 15.25-115.48 15.36-175.86q0.36-202.03 0.26-404.16a1.01 0.99 13.7 0 0-0.55-0.89c-167.57-83.62-357.2-111.91-542.22-83.77q-138.71 21.1-264.46 83.71a1 0.98 77.1 0 0-0.55 0.89" vector-effect="non-scaling-stroke"/>
   <path d="m437.44 395.07q138.68 4.19 272.17 42.21 49.54 14.11 97.54 32.17a1 1 0 0 0 1.35-0.94v-345.13a1.01 1 13.4 0 0-0.56-0.9c-242.4-117.42-530.05-117.28-772.63-0.16a1.01 1-13.4 0 0-0.56 0.9v345.07a1 1 0 0 0 1.34 0.94q16.38-5.91 32.82-11.61c111.64-38.7 230.22-61.11 348.52-62.72q9.95-0.13 20.01 0.17" vector-effect="non-scaling-stroke"/>
   <path d="m265.02 938.94c30.22 17.73 61.57 32.85 93.73 41.81 45.42 12.64 93.74 11.43 138.52-4.08q37.19-12.89 74.29-34.13c50.9-29.14 98-60.11 138.57-100.16q59.59-58.8 79.79-140.29c8.94-36.03 13.65-73.6 15.74-110.41q2.86-50.35 2.76-100.69a1.01 1 10.8 0 0-0.64-0.93q-81.53-31.35-166.21-50.4-84.92-19.1-171.82-24.41-35.87-2.19-55.95-1.71c-129.66 3.12-257.33 29.84-378.37 76.5a1.02 0.99 80.3 0 0-0.64 0.93q-0.38 58.31 3.9 116.46c2.6 35.34 7.69 70.65 17.34 104.81q21.93 77.58 79.95 133.31c38.12 36.62 82.78 66.25 129.04 93.39" vector-effect="non-scaling-stroke"/>
   <path d="m307.79 328.23c13.87 31.63 69.83 34.28 98.21 34.64 28.45 0.35 90.85-1.93 104.67-32.94q2.96-6.63 4.31-15.28c3.47-22.26 2.96-46.18-3.5-67.89-5.26-17.64-15.93-29.95-30.42-41.07-23.47-18.01-49.77-31.4-76.18-45.13-7.59-3.95-13.59-7.5-15.79-15.88-4.25-16.21-3.18-42.69 21.7-38.3 7.27 1.28 8.65 9.39 8.77 16.12q0.24 13.55 0.31 27.14a0.99 0.99 0 0 0 0.96 0.99q43.66 1.46 86.99 7.02a1 0.99-85.6 0 0 1.12-0.96q0.63-18.95-1.57-37.74c-1.95-16.65-7.69-30.25-20.6-40.01-33.45-25.28-78.75-28.43-118.61-17.06-27.99 7.98-58.54 25.37-66.94 55.61q-5.98 21.53-3.38 47.52 2.86 28.51 24.96 43.12 4.55 3.01 17.84 8.98c25.95 11.66 46.48 19.57 67.48 31.86 8.81 5.15 13.4 9.62 15.39 19.27 2.73 13.2 6.51 42.38-13.56 44.56-17.61 1.91-20.21-6.56-20.32-21.8q-0.12-18.95-0.14-37.91a0.99 0.99 0 0 0-1.08-0.99q-43.75 3.81-87.25 9.86a1 0.99 86.7 0 0-0.86 0.98q-0.24 20.28 0.04 27.24c0.51 12.91 2.22 26.12 7.45 38.05" vector-effect="non-scaling-stroke"/>
   <path d="m548.08 370.25q72.79 12.69 144.19 29.42c21.66 5.08 69.45 16.9 75.17-17.5q2.86-17.21 2.87-35.67 0.01-62.72-0.34-125.44c-0.1-18.01-0.14-39.3-9.47-56.56-19.13-35.37-58.79-50.57-95.48-61.81q-35.66-10.91-72.1-18.81-22.32-4.84-44.48-9.24a1 0.99-84.3 0 0-1.19 0.98v293.64a1.01 1.01 0 0 0 0.83 0.99" vector-effect="non-scaling-stroke"/>
   <path d="m226.8 148.76 55.43-11.33a1.01 0.99-89.9 0 0 0.78-0.79q0.33-1.65 0.21-3.32-0.2-3.08-0.2-3.17-0.06-24.72 0.01-49.27a1 0.99-5.4 0 0-1.2-0.98q-43.9 8.9-87.36 19.47c-40.8 9.92-81.25 22.11-121.04 35.66a1 0.99-9.5 0 0-0.68 0.94v55.43a1 1 0 0 0 1.34 0.94q26.98-9.68 54.36-18.15a1 1 0 0 1 1.3 0.96v225.16a1.01 1 82.3 0 0 1.27 0.97q46.73-13.09 94.19-23.25a1 1 0 0 0 0.79-0.98v-227.31a1.01 1-6.1 0 1 0.8-0.98" vector-effect="non-scaling-stroke"/>
   <path d="m644.32 338.6c7.2 1.78 24.09 6.01 26.87-4.62 2.58-9.9 2.78-22.46 2.79-30.48q0.07-57.59-0.1-115.19c-0.04-12.32 0.95-27.39-8.16-33.55q-8.11-5.48-20.85-8.23a1 1 0 0 0-1.21 0.98l-0.1 190.11a1.01 1-83 0 0 0.76 0.98" vector-effect="non-scaling-stroke"/>
   <path d="m335.08 780.17-32.44-42.22a1.03 1.01 37.4 0 1-0.14-0.99q16.43-40.11 19.99-49.97 2.05-5.66 0.52-14.1a1.01 0.96 16.8 0 0-0.32-0.56q-8.66-7.8-37.47-34.06-5.02-4.58-8.24-8a1.02 1-66.8 0 1-0.27-0.69q0.05-9.72 1.5-17.84 3.78-21.08 5.72-37.49c0.47-3.93 2.66-3.81 5.58-4.66q29.26-8.5 58.5-17.33a1 0.99-6.8 0 0 0.71-0.89l3.23-48.38a1 1 0 0 0-0.57-0.96q-66.61-32.25-138.19-11.19a1 0.99-3.9 0 0-0.7 0.79l-6.83 40.39a0.98 0.95 79.1 0 1-0.44 0.67l-62.26 39.91a1.02 0.99-51.7 0 1-0.84 0.11l-26.86-8.38a1.01 1-64.3 0 0-1.13 0.4c-20.89 31.18-33.81 71.75-29.48 109.45q1.01 8.77 2.24 17.54a1.01 1 1.7 0 0 0.8 0.84l14.03 2.83a1.02 1 87.5 0 1 0.77 0.72q7.4 27.37 14.61 54.81c1.16 4.42 0.49 7.89-2.27 11.23a0.99 0.99 0 0 0-0.05 1.2c52.75 75.99 152.5 102.4 235.68 61.88 23.87-11.62 45.24-28.98 62.38-49.26a1 1 0 0 0-0.43-1.58q-16.56-6-31.77-14.87a1 1 0 0 0-0.94-0.04l-43.4 20.98a0.98 0.98 0 0 1-1.22-0.29" vector-effect="non-scaling-stroke"/>
   <path d="m390.6 703.44q15.18-26.8 28.97-54.31c12.53-24.99 25.05-68.11-7.05-84.92-10.78-5.65-26.43-6.27-38.05-2.5q-18.73 6.06-25.19 26.08-4.76 14.73-3.49 31.78a1.01 1 87.8 0 0 1 0.93h26.22a1 1 0 0 0 1-0.94q0.3-5.12 0.4-10.23c0.21-10.72 2.79-27.58 18.6-23.06 19.6 5.59 1.16 48.72-4.26 59.45q-10.13 20.06-44.85 87.57a1 1 0 0 0 0.89 1.46h82.71a1 1 0 0 0 1-1v-27.74a1 1 0 0 0-1-1l-36.03-0.08a1 1 0 0 1-0.87-1.49" vector-effect="non-scaling-stroke"/>
   <path d="m450.93 615.25c-4.11 30.67-6.58 109.68 34.59 120.19 34.54 8.82 50.19-22.86 54.56-50.47 4.96-31.37 7.1-93.78-20.15-116.97-12.55-10.69-33.11-11.81-46.49-1.3-13.75 10.8-20.17 31.11-22.51 48.55" vector-effect="non-scaling-stroke"/>
   <path d="m557.41 678.51c3.12 26.4 15.81 61.78 49.71 58.12 39.65-4.28 42.71-61.75 42.72-90.63 0.01-24.27-3.38-64.1-25.38-79.91-12.47-8.97-30.7-8.88-43.07-0.14-28.8 20.35-27.58 82.09-23.98 112.56" vector-effect="non-scaling-stroke"/>
   <path d="m694.67 733.8c13.28 5.98 31.43 3.15 41.52-7.89 11.35-12.42 16.48-29.67 18.59-46.16 3.84-30.06 6.26-111.23-36.54-119.49-45.5-8.78-54.03 45.59-55.48 77.15-1.31 28.47 0.47 82.23 31.91 96.39" vector-effect="non-scaling-stroke"/>
   <path d="m584.97 832.07q-1.38-10.49-2.17-13.59-5.77-22.73-11.77-45.48a0.99 0.99 0 0 0-0.96-0.75h-16.11a1 1 0 0 0-0.96 1.27l25.2 88.25a1.01 1 81.9 0 0 0.96 0.73h13.5a1.01 1.01 0 0 0 0.97-0.73l24.98-88.25a1 1 0 0 0-0.96-1.27h-16.59a1 0.99 7 0 0-0.97 0.75q-8.8 34.62-10.55 42.01-1.77 7.48-2.98 17.05-0.78 6.15-1.59 0.01" vector-effect="non-scaling-stroke"/>
   <path d="m492.04 837.6a1 0.99-3.1 0 1 0.99-1.1h30.6a1 1 0 0 0 1-0.95q0.38-7.46-1.21-14.66c-2.93-13.32-10.94-21.27-25.25-20.04-25.25 2.18-27.63 40.41-14.6 55.23 8.24 9.37 23.96 10.14 33.18 1.34q5-4.77 6.83-11.91a1 0.99-82.8 0 0-0.96-1.25l-12.38-0.01a1 1 0 0 0-0.94 0.66c-3.42 9.45-14.5 7.83-16.36-1.49q-0.61-3.03-0.9-5.82" vector-effect="non-scaling-stroke"/>
   <path d="m551.98 852.26a10.9 10.9 0 0 0-10.9-10.9 10.9 10.9 0 0 0-10.9 10.9 10.9 10.9 0 0 0 10.9 10.9 10.9 10.9 0 0 0 10.9-10.9" vector-effect="non-scaling-stroke"/>
   <path d="m638.86 852.27a10.89 10.89 0 0 0-10.89-10.89 10.89 10.89 0 0 0-10.89 10.89 10.89 10.89 0 0 0 10.89 10.89 10.89 10.89 0 0 0 10.89-10.89" vector-effect="non-scaling-stroke"/>
   <path d="m273.57 571.36a0.33 0.33 0 0 0-0.18-0.35l-62.53-31.44a0.33 0.33 0 0 0-0.33 0.02l-61.44 39.24a0.33 0.33 0 0 0-0.16 0.28l0.89 59.83a0.33 0.33 0 0 0 0.19 0.3l54.49 24.06a0.33 0.33 0 0 0 0.31-0.02l59.35-35.95a0.33 0.33 0 0 0 0.15-0.23l9.26-55.74" vector-effect="non-scaling-stroke"/>
   <path d="m125.61 754.11 53.9 20.42a1 0.99 31.1 0 0 1.09-0.26l34.19-36.93a0.98 0.96-29.4 0 0 0.25-0.86c-0.52-2.75-0.9-5.68-1.63-8.32q-7.43-27.09-14.32-53.91a1 0.98-86 0 0-0.59-0.69q-20.05-7.98-39.36-16.63-5.68-2.55-11.85-4.68a1 0.99 29.8 0 0-1.08 0.29l-35.12 40.49a1.04 1.03 59 0 0-0.22 0.89l14.12 59.48a1.04 1.01-86.8 0 0 0.62 0.71" vector-effect="non-scaling-stroke"/>
   <path d="m222.38 829.86c26.33 1.54 52.51 2.93 79.02 4.01a1.02 1.01-70.8 0 0 0.86-0.42q1.63-2.31 3.63-5.77 10.97-19.01 22.01-38.89a1.01 1 41.5 0 0-0.07-1.08l-31.31-42.76a1.02 1.01 72.6 0 0-0.77-0.41l-71.41-2.28a1.03 1.02 22.4 0 0-0.76 0.31l-36.04 37.83a0.99 0.99 0 0 0-0.09 1.27l34.17 47.77a1.01 1.01 0 0 0 0.76 0.42" vector-effect="non-scaling-stroke"/>
   <path d="m488.36 702.17c17.18 12.82 20.03-13.94 20.58-23.43q1.65-28.28 0.72-51.75c-0.35-8.85-1.07-29.03-8.77-34.48q-5.6-3.96-10.97 0.78c-5.58 4.92-6.53 16.34-7.07 23.71q-2.38 32.63 0.09 65.25 0.78 10.35 5.12 19.54 0.1 0.23 0.3 0.38" vector-effect="non-scaling-stroke"/>
   <path d="m597.94 704.06c6.42 4.45 12.91-1.14 14.83-7.32q2.34-7.5 2.99-16.99c1.64-23.8 2.15-49.35-1.36-72.98-1.22-8.16-5.71-19.74-15.47-14.95-7.97 3.9-9.2 20.82-9.7 28.85q-1.87 30.66 0.65 61.26c0.58 6.98 1.97 17.91 8.06 22.13" vector-effect="non-scaling-stroke"/>
   <path d="m704.43 703.8c8.93 5.68 14.85-3.21 16.33-10.81q2.6-13.4 2.88-28.99c0.35-19.04 0.23-37.59-2.3-57.16-0.69-5.35-3.26-13.77-8.85-15.61-11.55-3.8-14.59 13.11-15.28 20.54q-3.29 35.34-0.57 70.74 0.73 9.59 4.43 17.47 1.12 2.4 3.36 3.82" vector-effect="non-scaling-stroke"/>
   <path d="m508.4 818.8c-3.75-6.96-12.5-6.26-15.14 1.1q-1.04 2.89-0.93 6.13a1.01 1 88.8 0 0 1 0.97h15.54a1 0.99 1.8 0 0 1-0.93q0.26-4.06-1.47-7.27" vector-effect="non-scaling-stroke"/>
  </g>
  <path d="m404.06 0h35q32.74 1.21 57.26 3.16 182.87 14.5 345.84 97.86a0.99 0.98-76.9 0 1 0.54 0.88l0.09 39.6v371.75c-1.1 112.04-6.98 229.58-80.48 321.32-23.16 28.91-50.23 53.9-79.72 76.24q-45.39 34.37-94.95 62.4-28.85 16.32-58.33 28.34c-55.98 22.84-115.25 28.97-173.32 13.98-57.95-14.97-110.4-46.27-162.53-81-63.66-42.4-121.85-96.3-153.7-167.03-28.31-62.89-35.72-133.44-38.09-201.57-0.61-17.31-1.39-34.63-1.39-51.99q-0.08-206 0.01-412.01a1 1 0 0 1 0.54-0.89q171.42-87.52 363.98-99.16 14.02-0.85 39.25-1.88zm-386.37 112.58q-0.4 197.3 0 394.61c0.11 54.71 2.1 109.69 11.25 163.72 9.52 56.2 29.58 107.53 65.23 152.44 28.57 36 63.94 66.1 101.75 91.98 48.2 33 96.65 62.27 150.85 79.59 53.14 16.97 111.04 14.93 163.18-4.46q34.38-12.78 68.6-32.17c66.36-37.6 133.06-83.39 178.01-144.73 26.29-35.87 43.74-77.33 53.29-120.9 12.58-57.36 15.25-115.48 15.36-175.86q0.36-202.03 0.26-404.16a1.01 0.99 13.7 0 0-0.55-0.89c-167.57-83.62-357.2-111.91-542.22-83.77q-138.71 21.1-264.46 83.71a1 0.98 77.1 0 0-0.55 0.89z" fill="#c60000"/>
  <path d="m17.69 112.58a1 0.98 77.1 0 1 0.55-0.89q125.75-62.61 264.46-83.71c185.02-28.14 374.65 0.15 542.22 83.77a1.01 0.99 13.7 0 1 0.55 0.89q0.1 202.13-0.26 404.16c-0.11 60.38-2.78 118.5-15.36 175.86-9.55 43.57-27 85.03-53.29 120.9-44.95 61.34-111.65 107.13-178.01 144.73q-34.22 19.39-68.6 32.17c-52.14 19.39-110.04 21.43-163.18 4.46-54.2-17.32-102.65-46.59-150.85-79.59-37.81-25.88-73.18-55.98-101.75-91.98-35.65-44.91-55.71-96.24-65.23-152.44-9.15-54.03-11.14-109.01-11.25-163.72q-0.4-197.31 0-394.61zm419.75 282.49q138.68 4.19 272.17 42.21 49.54 14.11 97.54 32.17a1 1 0 0 0 1.35-0.94v-345.13a1.01 1 13.4 0 0-0.56-0.9c-242.4-117.42-530.05-117.28-772.63-0.16a1.01 1-13.4 0 0-0.56 0.9v345.07a1 1 0 0 0 1.34 0.94q16.38-5.91 32.82-11.61c111.64-38.7 230.22-61.11 348.52-62.72q9.95-0.13 20.01 0.17zm-172.42 543.87c30.22 17.73 61.57 32.85 93.73 41.81 45.42 12.64 93.74 11.43 138.52-4.08q37.19-12.89 74.29-34.13c50.9-29.14 98-60.11 138.57-100.16q59.59-58.8 79.79-140.29c8.94-36.03 13.65-73.6 15.74-110.41q2.86-50.35 2.76-100.69a1.01 1 10.8 0 0-0.64-0.93q-81.53-31.35-166.21-50.4-84.92-19.1-171.82-24.41-35.87-2.19-55.95-1.71c-129.66 3.12-257.33 29.84-378.37 76.5a1.02 0.99 80.3 0 0-0.64 0.93q-0.38 58.31 3.9 116.46c2.6 35.34 7.69 70.65 17.34 104.81q21.93 77.58 79.95 133.31c38.12 36.62 82.78 66.25 129.04 93.39z" fill="#fefefe"/>
  <path d="m417.43 394.9c-118.3 1.61-236.88 24.02-348.52 62.72q-16.44 5.7-32.82 11.61a1 1 0 0 1-1.34-0.94v-345.07a1.01 1-13.4 0 1 0.56-0.9c242.58-117.12 530.23-117.26 772.63 0.16a1.01 1 13.4 0 1 0.56 0.9v345.13a1 1 0 0 1-1.35 0.94q-48-18.06-97.54-32.17-133.49-38.02-272.17-42.21-10.06-0.3-20.01-0.17zm-109.64-66.67c13.87 31.63 69.83 34.28 98.21 34.64 28.45 0.35 90.85-1.93 104.67-32.94q2.96-6.63 4.31-15.28c3.47-22.26 2.96-46.18-3.5-67.89-5.26-17.64-15.93-29.95-30.42-41.07-23.47-18.01-49.77-31.4-76.18-45.13-7.59-3.95-13.59-7.5-15.79-15.88-4.25-16.21-3.18-42.69 21.7-38.3 7.27 1.28 8.65 9.39 8.77 16.12q0.24 13.55 0.31 27.14a0.99 0.99 0 0 0 0.96 0.99q43.66 1.46 86.99 7.02a1 0.99-85.6 0 0 1.12-0.96q0.63-18.95-1.57-37.74c-1.95-16.65-7.69-30.25-20.6-40.01-33.45-25.28-78.75-28.43-118.61-17.06-27.99 7.98-58.54 25.37-66.94 55.61q-5.98 21.53-3.38 47.52 2.86 28.51 24.96 43.12 4.55 3.01 17.84 8.98c25.95 11.66 46.48 19.57 67.48 31.86 8.81 5.15 13.4 9.62 15.39 19.27 2.73 13.2 6.51 42.38-13.56 44.56-17.61 1.91-20.21-6.56-20.32-21.8q-0.12-18.95-0.14-37.91a0.99 0.99 0 0 0-1.08-0.99q-43.75 3.81-87.25 9.86a1 0.99 86.7 0 0-0.86 0.98q-0.24 20.28 0.04 27.24c0.51 12.91 2.22 26.12 7.45 38.05zm240.29 42.02q72.79 12.69 144.19 29.42c21.66 5.08 69.45 16.9 75.17-17.5q2.86-17.21 2.87-35.67 0.01-62.72-0.34-125.44c-0.1-18.01-0.14-39.3-9.47-56.56-19.13-35.37-58.79-50.57-95.48-61.81q-35.66-10.91-72.1-18.81-22.32-4.84-44.48-9.24a1 0.99-84.3 0 0-1.19 0.98v293.64a1.01 1.01 0 0 0 0.83 0.99zm-321.28-221.49 55.43-11.33a1.01 0.99-89.9 0 0 0.78-0.79q0.33-1.65 0.21-3.32-0.2-3.08-0.2-3.17-0.06-24.72 0.01-49.27a1 0.99-5.4 0 0-1.2-0.98q-43.9 8.9-87.36 19.47c-40.8 9.92-81.25 22.11-121.04 35.66a1 0.99-9.5 0 0-0.68 0.94v55.43a1 1 0 0 0 1.34 0.94q26.98-9.68 54.36-18.15a1 1 0 0 1 1.3 0.96v225.16a1.01 1 82.3 0 0 1.27 0.97q46.73-13.09 94.19-23.25a1 1 0 0 0 0.79-0.98v-227.31a1.01 1-6.1 0 1 0.8-0.98z" fill="#c60000"/>
  <g fill="#fefefe">
   <path d="m406 362.87c-28.38-0.36-84.34-3.01-98.21-34.64-5.23-11.93-6.94-25.14-7.45-38.05q-0.28-6.96-0.04-27.24a1 0.99 86.7 0 1 0.86-0.98q43.5-6.05 87.25-9.86a0.99 0.99 0 0 1 1.08 0.99q0.02 18.96 0.14 37.91c0.11 15.24 2.71 23.71 20.32 21.8 20.07-2.18 16.29-31.36 13.56-44.56-1.99-9.65-6.58-14.12-15.39-19.27-21-12.29-41.53-20.2-67.48-31.86q-13.29-5.97-17.84-8.98-22.1-14.61-24.96-43.12-2.6-25.99 3.38-47.52c8.4-30.24 38.95-47.63 66.94-55.61 39.86-11.37 85.16-8.22 118.61 17.06 12.91 9.76 18.65 23.36 20.6 40.01q2.2 18.79 1.57 37.74a1 0.99-85.6 0 1-1.12 0.96q-43.33-5.56-86.99-7.02a0.99 0.99 0 0 1-0.96-0.99q-0.07-13.59-0.31-27.14c-0.12-6.73-1.5-14.84-8.77-16.12-24.88-4.39-25.95 22.09-21.7 38.3 2.2 8.38 8.2 11.93 15.79 15.88 26.41 13.73 52.71 27.12 76.18 45.13 14.49 11.12 25.16 23.43 30.42 41.07 6.46 21.71 6.97 45.63 3.5 67.89q-1.35 8.65-4.31 15.28c-13.82 31.01-76.22 33.29-104.67 32.94z"/>
   <path d="m548.08 370.25a1.01 1.01 0 0 1-0.83-0.99v-293.64a1 0.99-84.3 0 1 1.19-0.98q22.16 4.4 44.48 9.24 36.44 7.9 72.1 18.81c36.69 11.24 76.35 26.44 95.48 61.81 9.33 17.26 9.37 38.55 9.47 56.56q0.35 62.72 0.34 125.44-0.01 18.46-2.87 35.67c-5.72 34.4-53.51 22.58-75.17 17.5q-71.4-16.73-144.19-29.42zm96.24-31.65c7.2 1.78 24.09 6.01 26.87-4.62 2.58-9.9 2.78-22.46 2.79-30.48q0.07-57.59-0.1-115.19c-0.04-12.32 0.95-27.39-8.16-33.55q-8.11-5.48-20.85-8.23a1 1 0 0 0-1.21 0.98l-0.1 190.11a1.01 1-83 0 0 0.76 0.98z"/>
   <path d="m226 149.74v227.31a1 1 0 0 1-0.79 0.98q-47.46 10.16-94.19 23.25a1.01 1 82.3 0 1-1.27-0.97v-225.16a1 1 0 0 0-1.3-0.96q-27.38 8.47-54.36 18.15a1 1 0 0 1-1.34-0.94v-55.43a1 0.99-9.5 0 1 0.68-0.94c39.79-13.55 80.24-25.74 121.04-35.66q43.46-10.57 87.36-19.47a1 0.99-5.4 0 1 1.2 0.98q-0.07 24.55-0.01 49.27 0 0.09 0.2 3.17 0.12 1.67-0.21 3.32a1.01 0.99-89.9 0 1-0.78 0.79l-55.43 11.33a1.01 1-6.1 0 0-0.8 0.98z"/>
  </g>
  <path d="m644.32 338.6a1.01 1-83 0 1-0.76-0.98l0.1-190.11a1 1 0 0 1 1.21-0.98q12.74 2.75 20.85 8.23c9.11 6.16 8.12 21.23 8.16 33.55q0.17 57.6 0.1 115.19c-0.01 8.02-0.21 20.58-2.79 30.48-2.78 10.63-19.67 6.4-26.87 4.62z" fill="#c60000"/>
  <path d="m265.02 938.94c-46.26-27.14-90.92-56.77-129.04-93.39q-58.02-55.73-79.95-133.31c-9.65-34.16-14.74-69.47-17.34-104.81q-4.28-58.15-3.9-116.46a1.02 0.99 80.3 0 1 0.64-0.93c121.04-46.66 248.71-73.38 378.37-76.5q20.08-0.48 55.95 1.71 86.9 5.31 171.82 24.41 84.68 19.05 166.21 50.4a1.01 1 10.8 0 1 0.64 0.93q0.1 50.34-2.76 100.69c-2.09 36.81-6.8 74.38-15.74 110.41q-20.2 81.49-79.79 140.29c-40.57 40.05-87.67 71.02-138.57 100.16q-37.1 21.24-74.29 34.13c-44.78 15.51-93.1 16.72-138.52 4.08-32.16-8.96-63.51-24.08-93.73-41.81zm70.06-158.77-32.44-42.22a1.03 1.01 37.4 0 1-0.14-0.99q16.43-40.11 19.99-49.97 2.05-5.66 0.52-14.1a1.01 0.96 16.8 0 0-0.32-0.56q-8.66-7.8-37.47-34.06-5.02-4.58-8.24-8a1.02 1-66.8 0 1-0.27-0.69q0.05-9.72 1.5-17.84 3.78-21.08 5.72-37.49c0.47-3.93 2.66-3.81 5.58-4.66q29.26-8.5 58.5-17.33a1 0.99-6.8 0 0 0.71-0.89l3.23-48.38a1 1 0 0 0-0.57-0.96q-66.61-32.25-138.19-11.19a1 0.99-3.9 0 0-0.7 0.79l-6.83 40.39a0.98 0.95 79.1 0 1-0.44 0.67l-62.26 39.91a1.02 0.99-51.7 0 1-0.84 0.11l-26.86-8.38a1.01 1-64.3 0 0-1.13 0.4c-20.89 31.18-33.81 71.75-29.48 109.45q1.01 8.77 2.24 17.54a1.01 1 1.7 0 0 0.8 0.84l14.03 2.83a1.02 1 87.5 0 1 0.77 0.72q7.4 27.37 14.61 54.81c1.16 4.42 0.49 7.89-2.27 11.23a0.99 0.99 0 0 0-0.05 1.2c52.75 75.99 152.5 102.4 235.68 61.88 23.87-11.62 45.24-28.98 62.38-49.26a1 1 0 0 0-0.43-1.58q-16.56-6-31.77-14.87a1 1 0 0 0-0.94-0.04l-43.4 20.98a0.98 0.98 0 0 1-1.22-0.29zm55.52-76.73q15.18-26.8 28.97-54.31c12.53-24.99 25.05-68.11-7.05-84.92-10.78-5.65-26.43-6.27-38.05-2.5q-18.73 6.06-25.19 26.08-4.76 14.73-3.49 31.78a1.01 1 87.8 0 0 1 0.93h26.22a1 1 0 0 0 1-0.94q0.3-5.12 0.4-10.23c0.21-10.72 2.79-27.58 18.6-23.06 19.6 5.59 1.16 48.72-4.26 59.45q-10.13 20.06-44.85 87.57a1 1 0 0 0 0.89 1.46h82.71a1 1 0 0 0 1-1v-27.74a1 1 0 0 0-1-1l-36.03-0.08a1 1 0 0 1-0.87-1.49zm60.33-88.19c-4.11 30.67-6.58 109.68 34.59 120.19 34.54 8.82 50.19-22.86 54.56-50.47 4.96-31.37 7.1-93.78-20.15-116.97-12.55-10.69-33.11-11.81-46.49-1.3-13.75 10.8-20.17 31.11-22.51 48.55zm106.48 63.26c3.12 26.4 15.81 61.78 49.71 58.12 39.65-4.28 42.71-61.75 42.72-90.63 0.01-24.27-3.38-64.1-25.38-79.91-12.47-8.97-30.7-8.88-43.07-0.14-28.8 20.35-27.58 82.09-23.98 112.56zm137.26 55.29c13.28 5.98 31.43 3.15 41.52-7.89 11.35-12.42 16.48-29.67 18.59-46.16 3.84-30.06 6.26-111.23-36.54-119.49-45.5-8.78-54.03 45.59-55.48 77.15-1.31 28.47 0.47 82.23 31.91 96.39zm-109.7 98.27q-1.38-10.49-2.17-13.59-5.77-22.73-11.77-45.48a0.99 0.99 0 0 0-0.96-0.75h-16.11a1 1 0 0 0-0.96 1.27l25.2 88.25a1.01 1 81.9 0 0 0.96 0.73h13.5a1.01 1.01 0 0 0 0.97-0.73l24.98-88.25a1 1 0 0 0-0.96-1.27h-16.59a1 0.99 7 0 0-0.97 0.75q-8.8 34.62-10.55 42.01-1.77 7.48-2.98 17.05-0.78 6.15-1.59 0.01zm-92.93 5.53a1 0.99-3.1 0 1 0.99-1.1h30.6a1 1 0 0 0 1-0.95q0.38-7.46-1.21-14.66c-2.93-13.32-10.94-21.27-25.25-20.04-25.25 2.18-27.63 40.41-14.6 55.23 8.24 9.37 23.96 10.14 33.18 1.34q5-4.77 6.83-11.91a1 0.99-82.8 0 0-0.96-1.25l-12.38-0.01a1 1 0 0 0-0.94 0.66c-3.42 9.45-14.5 7.83-16.36-1.49q-0.61-3.03-0.9-5.82zm59.94 14.66a10.9 10.9 0 0 0-10.9-10.9 10.9 10.9 0 0 0-10.9 10.9 10.9 10.9 0 0 0 10.9 10.9 10.9 10.9 0 0 0 10.9-10.9zm86.88 0.01a10.89 10.89 0 0 0-10.89-10.89 10.89 10.89 0 0 0-10.89 10.89 10.89 10.89 0 0 0 10.89 10.89 10.89 10.89 0 0 0 10.89-10.89z" fill="#c60000"/>
  <path d="m335.08 780.17a0.98 0.98 0 0 0 1.22 0.29l43.4-20.98a1 1 0 0 1 0.94 0.04q15.21 8.87 31.77 14.87a1 1 0 0 1 0.43 1.58c-17.14 20.28-38.51 37.64-62.38 49.26-83.18 40.52-182.93 14.11-235.68-61.88a0.99 0.99 0 0 1 0.05-1.2c2.76-3.34 3.43-6.81 2.27-11.23q-7.21-27.44-14.61-54.81a1.02 1 87.5 0 0-0.77-0.72l-14.03-2.83a1.01 1 1.7 0 1-0.8-0.84q-1.23-8.77-2.24-17.54c-4.33-37.7 8.59-78.27 29.48-109.45a1.01 1-64.3 0 1 1.13-0.4l26.86 8.38a1.02 0.99-51.7 0 0 0.84-0.11l62.26-39.91a0.98 0.95 79.1 0 0 0.44-0.67l6.83-40.39a1 0.99-3.9 0 1 0.7-0.79q71.58-21.06 138.19 11.19a1 1 0 0 1 0.57 0.96l-3.23 48.38a1 0.99-6.8 0 1-0.71 0.89q-29.24 8.83-58.5 17.33c-2.92 0.85-5.11 0.73-5.58 4.66q-1.94 16.41-5.72 37.49-1.45 8.12-1.5 17.84a1.02 1-66.8 0 0 0.27 0.69q3.22 3.42 8.24 8 28.81 26.26 37.47 34.06a1.01 0.96 16.8 0 1 0.32 0.56q1.53 8.44-0.52 14.1-3.56 9.86-19.99 49.97a1.03 1.01 37.4 0 0 0.14 0.99zm-61.51-208.81a0.33 0.33 0 0 0-0.18-0.35l-62.53-31.44a0.33 0.33 0 0 0-0.33 0.02l-61.44 39.24a0.33 0.33 0 0 0-0.16 0.28l0.89 59.83a0.33 0.33 0 0 0 0.19 0.3l54.49 24.06a0.33 0.33 0 0 0 0.31-0.02l59.35-35.95a0.33 0.33 0 0 0 0.15-0.23zm-147.96 182.75 53.9 20.42a1 0.99 31.1 0 0 1.09-0.26l34.19-36.93a0.98 0.96-29.4 0 0 0.25-0.86c-0.52-2.75-0.9-5.68-1.63-8.32q-7.43-27.09-14.32-53.91a1 0.98-86 0 0-0.59-0.69q-20.05-7.98-39.36-16.63-5.68-2.55-11.85-4.68a1 0.99 29.8 0 0-1.08 0.29l-35.12 40.49a1.04 1.03 59 0 0-0.22 0.89l14.12 59.48a1.04 1.01-86.8 0 0 0.62 0.71zm96.77 75.75c26.33 1.54 52.51 2.93 79.02 4.01a1.02 1.01-70.8 0 0 0.86-0.42q1.63-2.31 3.63-5.77 10.97-19.01 22.01-38.89a1.01 1 41.5 0 0-0.07-1.08l-31.31-42.76a1.02 1.01 72.6 0 0-0.77-0.41l-71.41-2.28a1.03 1.02 22.4 0 0-0.76 0.31l-36.04 37.83a0.99 0.99 0 0 0-0.09 1.27l34.17 47.77a1.01 1.01 0 0 0 0.76 0.42z" fill="#fefefe"/>
  <path d="m273.57 571.36-9.26 55.74a0.33 0.33 0 0 1-0.15 0.23l-59.35 35.95a0.33 0.33 0 0 1-0.31 0.02l-54.49-24.06a0.33 0.33 0 0 1-0.19-0.3l-0.89-59.83a0.33 0.33 0 0 1 0.16-0.28l61.44-39.24a0.33 0.33 0 0 1 0.33-0.02l62.53 31.44a0.33 0.33 0 0 1 0.18 0.35z" fill="#c60000"/>
  <g fill="#fefefe">
   <path d="m390.6 703.44a1 1 0 0 0 0.87 1.49l36.03 0.08a1 1 0 0 1 1 1v27.74a1 1 0 0 1-1 1h-82.71a1 1 0 0 1-0.89-1.46q34.72-67.51 44.85-87.57c5.42-10.73 23.86-53.86 4.26-59.45-15.81-4.52-18.39 12.34-18.6 23.06q-0.1 5.11-0.4 10.23a1 1 0 0 1-1 0.94h-26.22a1.01 1 87.8 0 1-1-0.93q-1.27-17.05 3.49-31.78 6.46-20.02 25.19-26.08c11.62-3.77 27.27-3.15 38.05 2.5 32.1 16.81 19.58 59.93 7.05 84.92q-13.79 27.51-28.97 54.31z"/>
   <path d="m485.52 735.44c-41.17-10.51-38.7-89.52-34.59-120.19 2.34-17.44 8.76-37.75 22.51-48.55 13.38-10.51 33.94-9.39 46.49 1.3 27.25 23.19 25.11 85.6 20.15 116.97-4.37 27.61-20.02 59.29-54.56 50.47zm2.84-33.27c17.18 12.82 20.03-13.94 20.58-23.43q1.65-28.28 0.72-51.75c-0.35-8.85-1.07-29.03-8.77-34.48q-5.6-3.96-10.97 0.78c-5.58 4.92-6.53 16.34-7.07 23.71q-2.38 32.63 0.09 65.25 0.78 10.35 5.12 19.54 0.1 0.23 0.3 0.38z"/>
   <path d="m607.12 736.63c-33.9 3.66-46.59-31.72-49.71-58.12-3.6-30.47-4.82-92.21 23.98-112.56 12.37-8.74 30.6-8.83 43.07 0.14 22 15.81 25.39 55.64 25.38 79.91-0.01 28.88-3.07 86.35-42.72 90.63zm-9.18-32.57c6.42 4.45 12.91-1.14 14.83-7.32q2.34-7.5 2.99-16.99c1.64-23.8 2.15-49.35-1.36-72.98-1.22-8.16-5.71-19.74-15.47-14.95-7.97 3.9-9.2 20.82-9.7 28.85q-1.87 30.66 0.65 61.26c0.58 6.98 1.97 17.91 8.06 22.13z"/>
   <path d="m694.67 733.8c-31.44-14.16-33.22-67.92-31.91-96.39 1.45-31.56 9.98-85.93 55.48-77.15 42.8 8.26 40.38 89.43 36.54 119.49-2.11 16.49-7.24 33.74-18.59 46.16-10.09 11.04-28.24 13.87-41.52 7.89zm9.76-30c8.93 5.68 14.85-3.21 16.33-10.81q2.6-13.4 2.88-28.99c0.35-19.04 0.23-37.59-2.3-57.16-0.69-5.35-3.26-13.77-8.85-15.61-11.55-3.8-14.59 13.11-15.28 20.54q-3.29 35.34-0.57 70.74 0.73 9.59 4.43 17.47 1.12 2.4 3.36 3.82z"/>
  </g>
  <g fill="#c60000">
   <path d="m488.36 702.17q-0.2-0.15-0.3-0.38-4.34-9.19-5.12-19.54-2.47-32.62-0.09-65.25c0.54-7.37 1.49-18.79 7.07-23.71q5.37-4.74 10.97-0.78c7.7 5.45 8.42 25.63 8.77 34.48q0.93 23.47-0.72 51.75c-0.55 9.49-3.4 36.25-20.58 23.43z"/>
   <path d="m597.94 704.06c-6.09-4.22-7.48-15.15-8.06-22.13q-2.52-30.6-0.65-61.26c0.5-8.03 1.73-24.95 9.7-28.85 9.76-4.79 14.25 6.79 15.47 14.95 3.51 23.63 3 49.18 1.36 72.98q-0.65 9.49-2.99 16.99c-1.92 6.18-8.41 11.77-14.83 7.32z"/>
   <path d="m704.43 703.8q-2.24-1.42-3.36-3.82-3.7-7.88-4.43-17.47-2.72-35.4 0.57-70.74c0.69-7.43 3.73-24.34 15.28-20.54 5.59 1.84 8.16 10.26 8.85 15.61 2.53 19.57 2.65 38.12 2.3 57.16q-0.28 15.59-2.88 28.99c-1.48 7.6-7.4 16.49-16.33 10.81z"/>
   <path d="m125.61 754.11a1.04 1.01-86.8 0 1-0.62-0.71l-14.12-59.48a1.04 1.03 59 0 1 0.22-0.89l35.12-40.49a1 0.99 29.8 0 1 1.08-0.29q6.17 2.13 11.85 4.68 19.31 8.65 39.36 16.63a1 0.98-86 0 1 0.59 0.69q6.89 26.82 14.32 53.91c0.73 2.64 1.11 5.57 1.63 8.32a0.98 0.96-29.4 0 1-0.25 0.86l-34.19 36.93a1 0.99 31.1 0 1-1.09 0.26z"/>
   <path d="m301.4 833.87c-26.51-1.08-52.69-2.47-79.02-4.01a1.01 1.01 0 0 1-0.76-0.42l-34.17-47.77a0.99 0.99 0 0 1 0.09-1.27l36.04-37.83a1.03 1.02 22.4 0 1 0.76-0.31l71.41 2.28a1.02 1.01 72.6 0 1 0.77 0.41l31.31 42.76a1.01 1 41.5 0 1 0.07 1.08q-11.04 19.88-22.01 38.89-2 3.46-3.63 5.77a1.02 1.01-70.8 0 1-0.86 0.42z"/>
  </g>
  <path d="m586.56 832.06q1.21-9.57 2.98-17.05 1.75-7.39 10.55-42.01a1 0.99 7 0 1 0.97-0.75h16.59a1 1 0 0 1 0.96 1.27l-24.98 88.25a1.01 1.01 0 0 1-0.97 0.73h-13.5a1.01 1 81.9 0 1-0.96-0.73l-25.2-88.25a1 1 0 0 1 0.96-1.27h16.11a0.99 0.99 0 0 1 0.96 0.75q6 22.75 11.77 45.48 0.79 3.1 2.17 13.59 0.81 6.14 1.59-0.01z" fill="#fefefe"/>
  <path d="m492.04 837.6q0.29 2.79 0.9 5.82c1.86 9.32 12.94 10.94 16.36 1.49a1 1 0 0 1 0.94-0.66l12.38 0.01a1 0.99-82.8 0 1 0.96 1.25q-1.83 7.14-6.83 11.91c-9.22 8.8-24.94 8.03-33.18-1.34-13.03-14.82-10.65-53.05 14.6-55.23 14.31-1.23 22.32 6.72 25.25 20.04q1.59 7.2 1.21 14.66a1 1 0 0 1-1 0.95h-30.6a1 0.99-3.1 0 0-0.99 1.1zm16.36-18.8c-3.75-6.96-12.5-6.26-15.14 1.1q-1.04 2.89-0.93 6.13a1.01 1 88.8 0 0 1 0.97h15.54a1 0.99 1.8 0 0 1-0.93q0.26-4.06-1.47-7.27z" fill="#fefefe"/>
  <path d="m508.4 818.8q1.73 3.21 1.47 7.27a1 0.99 1.8 0 1-1 0.93h-15.54a1.01 1 88.8 0 1-1-0.97q-0.11-3.24 0.93-6.13c2.64-7.36 11.39-8.06 15.14-1.1z" fill="#c60000"/>
  <circle cx="541.08" cy="852.26" r="10.9" fill="#fefefe"/>
  <circle cx="627.97" cy="852.27" r="10.89" fill="#fefefe"/>
 </g>
</svg>
