<?xml version="1.0" encoding="utf-8"?>
<svg width="412.1" height="510.01" version="1.2" viewBox="0 0 309.08 382.51" xmlns="http://www.w3.org/2000/svg"><path d="M16.223 81.516l26.063-6.515 14.948-3.45 15.714-2.683 16.481-1.916 18.014-.383 16.481-1.534 19.93.384 8.433.383.767 302.79-16.098-8.433-22.614-17.63-26.83-24.53-15.33-19.164-22.614-33.347-12.648-22.613-10.348-21.847-4.217-14.565-5.749-20.697-2.683-26.829-1.15-41.778-.766-31.429z" fill="#fff"/><g stroke-width=".323"><path d="M281.856 221.395c6.667-21.33 12.245-44.538 14.23-73.526H159.45v78.088h120.932c.52-1.536 1.016-3.06 1.476-4.561" fill="#ffdc00"/><path d="M159.633 141.203h136.478c.12-3.593.17-7.284.17-11.058V84C253.69 67.242 190.18 66.66 159.631 66.66v74.542" fill="#006bb0"/><path d="M155.761 10.893h-2.916c-24.658.06-52.739.931-71.918 3.254-19.867 2.408-50.37 7.2-66.411 16.286v46.123c18.73-8.481 61.523-18.862 141.718-18.862h.012c78.414 0 121.078 9.92 140.437 18.294V30.434c-16.044-9.086-46.545-13.878-66.412-16.285-19.855-2.396-49.242-3.255-74.508-3.255M232.825 305.644c22.758-28.288 36.577-52.098 45.287-72.668h-118.9V367.86c23.424-12.499 55.728-39.975 73.613-62.215" fill="#006bb0"/><path d="M231.214 304.746c-16.963 21.416-47.623 47.864-69.85 59.904V234.788H274.19c-8.276 19.794-21.379 42.723-42.976 69.958m-200.061-85.65c-1.573-4.839-3.182-10.32-4.888-16.321l40.774-1.004v85.736c-18.125-25.893-29.837-49.741-35.886-68.41M16.597 85.619c.049-.012.097-.025.158-.025 14.41-5.626 31.386-9.364 48.675-11.857v95.125H19.285c-1.694-12.172-2.686-25.433-2.686-40.23zm144.767 53.43V68.837c29.776-.013 91.689.544 133.2 16.333v43.46c0 3.557-.06 7.03-.17 10.417zm-60.725 62.044h49.304v163.642c-14.845-8.167-32.68-21.875-49.304-37.627zm0-130.852c19.286-1.27 36.89-1.404 49.304-1.404V172.72H100.64zM65.431 189.514H23c-.436-1.948-1.126-5.408-1.525-7.416h58.597l.072-13.237v-96.94c1.936-.205 3.86-.398 5.784-.58v110.924h64.017v7.247H85.928v122.36A180.123 180.123 0 0180.144 305V189.513zm213.138 33.843H161.364v-72.885h132.438c-1.936 27.054-7.332 48.712-13.793 68.626-.46 1.403-.931 2.819-1.44 4.259M16.598 31.597c15.801-8.3 45.857-12.68 65.42-14.87 18.899-2.118 46.557-2.929 70.853-2.977h2.867c24.888 0 53.842.787 73.405 2.976 19.565 2.19 49.608 6.57 65.42 14.87v41.586c-19.068-7.647-61.102-16.709-138.342-16.709l-.012.013v-.013c-79.009 0-121.173 9.486-139.612 17.23zM238.982 7.022c-24.417-2.722-56.237-3.545-83.243-3.763h-.025c-27.017.218-58.838 1.04-83.242 3.763-24.417 2.71-49.667 7.61-66.787 16.273v107.369c0 37.252 9.813 90.261 41.537 143.679 31.71 53.405 86.014 98.063 108.492 105.407v.013h.025v-.013c22.468-7.344 76.781-52.002 108.493-105.407 31.71-53.418 41.523-106.424 41.523-143.68V23.297c-17.108-8.663-42.36-13.563-66.777-16.273" fill="#004c8f"/><path d="M32.082 48.684c.073.557.194 1.065.339 1.5.157.448.387.81.677 1.09a2.5 2.5 0 001.102.604c.447.121.98.133 1.62.048a3.182 3.182 0 001.925-.98c.544-.568.738-1.343.617-2.347-.073-.544-.206-.992-.412-1.367a2.615 2.615 0 00-.87-.956c-.376-.266-.872-.496-1.465-.677a19.701 19.701 0 00-2.178-.509c-1.137-.217-2.141-.471-3-.786s-1.597-.726-2.214-1.21a5.334 5.334 0 01-1.465-1.815c-.362-.714-.604-1.56-.75-2.54-.338-2.36.097-4.223 1.295-5.579 1.21-1.343 3-2.19 5.396-2.504 1.113-.145 2.154-.17 3.134-.06.968.12 1.827.399 2.577.834a5.38 5.38 0 011.851 1.803c.484.775.799 1.73.944 2.868.025.217.048.447.084.677-1.597.194-3.182.4-4.779.605-.145-1.15-.472-1.996-.956-2.553-.496-.556-1.234-.774-2.202-.641-.556.072-1.016.206-1.355.411-.35.206-.617.448-.798.75a1.972 1.972 0 00-.34.944c-.035.351-.024.69.026 1.053.096.738.35 1.33.738 1.79s1.137.835 2.25 1.114c1.355.363 2.698.738 4.041 1.113.98.278 1.803.593 2.456.956.654.363 1.186.774 1.61 1.234.411.46.726.98.943 1.56.206.593.363 1.259.448 1.997.315 2.517-.194 4.453-1.537 5.796-1.33 1.33-3.315 2.177-5.964 2.528-2.76.375-4.804.049-6.16-.968-1.354-1.016-2.189-2.625-2.504-4.827a31.79 31.79 0 01-.133-.968 343.56 343.56 0 014.912-.69c.037.23.06.46.097.702M51.131 48.498c.424.968 1.15 1.38 2.19 1.258 1.029-.109 1.634-.677 1.84-1.718.193-1.028.18-2.528-.037-4.5-.218-1.973-.544-3.437-.956-4.393-.423-.968-1.161-1.391-2.19-1.27-1.065.121-1.682.702-1.887 1.73-.194 1.029-.17 2.529.06 4.501s.557 3.436.98 4.392m-2.238-13.406c.072.641.145 1.283.218 1.912h.072c.436-.92.956-1.597 1.573-2.033.605-.447 1.403-.726 2.371-.835 1.973-.217 3.497.363 4.574 1.755 1.089 1.403 1.803 3.775 2.154 7.138.363 3.364.157 5.82-.593 7.369-.75 1.56-2.093 2.444-4.017 2.65-.883.096-1.646.024-2.311-.23-.654-.254-1.283-.714-1.863-1.368-.025 0-.037 0-.073.013l.883 7.49c-1.56.18-3.11.362-4.658.544l-2.904-23.86 4.574-.544M70.118 44.843c.036 0 .06 0 .097-.012.653-6.038 1.33-12.075 2.02-18.113 1.73-.157 3.473-.302 5.203-.46a2138.221 2138.221 0 00-3.533 24.55c-2.093.194-4.198.387-6.291.593a1912.22 1912.22 0 00-8.083-23.448c1.791-.182 3.582-.363 5.373-.533a2214.585 2214.585 0 015.214 17.423M85.048 43.109c.096.556.254 1.052.46 1.476.205.423.471.75.798.992.327.23.738.327 1.246.29.496-.036.908-.206 1.222-.484.303-.278.545-.653.702-1.125.157-.46.254-1.016.29-1.658s.025-1.355-.036-2.117c-.157-2.202-.448-3.75-.871-4.646s-1.113-1.307-2.057-1.234c-.532.036-.956.181-1.258.435-.303.242-.533.63-.678 1.15-.145.52-.206 1.198-.206 2.057.013.834.06 1.875.158 3.085.048.63.12 1.222.23 1.778m9.776 5.119c.157 2.335-.315 4.125-1.392 5.384-1.077 1.246-2.988 1.972-5.71 2.178-1.985.145-3.546-.146-4.683-.908-1.137-.75-1.779-1.9-1.912-3.448 1.5-.133 2.989-.254 4.489-.363.048.58.327 1.028.823 1.319.242.145.496.242.762.314.266.073.544.097.835.073.956-.073 1.597-.424 1.936-1.053.338-.641.484-1.403.411-2.31-.06-.8-.109-1.586-.17-2.384h-.072a5.369 5.369 0 01-1.633 1.742 4.267 4.267 0 01-2.118.774c-1.863.146-3.315-.435-4.38-1.766-1.064-1.331-1.73-3.642-2.008-6.945a28.725 28.725 0 01-.073-3.243c.037-1.113.218-2.13.545-3.049a5.434 5.434 0 011.585-2.323c.738-.617 1.754-.98 3.049-1.089.665-.048 1.38.073 2.117.387.75.303 1.392.908 1.924 1.827.012-.012.036-.012.06-.012l-.145-2.02c1.525-.11 3.061-.218 4.586-.327.387 5.747.786 11.494 1.174 17.241M102.207 41.9a5.66 5.66 0 00.424 1.489c.205.423.46.762.786 1.004.327.242.738.339 1.234.315.509-.025.908-.182 1.234-.46.315-.278.557-.641.726-1.101.17-.472.279-1.016.327-1.67.036-.641.036-1.343 0-2.105-.121-2.214-.387-3.763-.786-4.67-.412-.896-1.09-1.331-2.033-1.27-.532.024-.956.169-1.27.41-.303.243-.545.618-.69 1.138-.157.52-.242 1.198-.242 2.045-.012.847.025 1.875.097 3.097.036.63.096 1.222.193 1.779m9.668 5.299c.12 2.347-.376 4.126-1.489 5.36-1.1 1.222-3.012 1.912-5.747 2.07-1.984.12-3.545-.219-4.658-.993-1.137-.774-1.742-1.936-1.84-3.485 1.489-.096 2.99-.193 4.49-.278.036.58.302 1.029.786 1.343.242.145.496.242.75.327.266.072.557.097.847.084.956-.06 1.597-.399 1.948-1.028.363-.63.508-1.391.46-2.287-.048-.798-.085-1.597-.133-2.395h-.06a5.803 5.803 0 01-1.67 1.718c-.678.447-1.38.69-2.13.726-1.863.109-3.315-.496-4.344-1.852-1.04-1.343-1.657-3.666-1.875-6.969a29.314 29.314 0 01-.025-3.254c.06-1.114.254-2.118.605-3.037.351-.92.896-1.682 1.634-2.287s1.766-.956 3.06-1.029c.666-.048 1.38.097 2.118.424.738.314 1.367.932 1.875 1.851h.073l-.11-2.02c1.525-.085 3.062-.17 4.587-.242.29 5.747.568 11.506.847 17.253M129.186 41.157c.024 0 .06-.012.096-.012 1.04-5.977 2.093-11.954 3.182-17.943 1.73-.037 3.473-.085 5.215-.121a2106.854 2106.854 0 00-5.106 24.27c-2.105.049-4.198.11-6.304.182a2408.255 2408.255 0 00-6.545-23.908c1.79-.072 3.593-.133 5.384-.206 1.38 5.917 2.734 11.821 4.077 17.738M144.115 28.923c0 .81.013 1.62.025 2.431h.072c.472-.883 1.053-1.597 1.743-2.129.69-.544 1.536-.81 2.54-.823a5.404 5.404 0 01.86.061c.024 1.488.036 2.976.048 4.465-.254-.025-.508-.037-.75-.049-.242-.012-.496-.012-.75-.012-.412 0-.823.06-1.235.181a3.466 3.466 0 00-1.137.569 2.77 2.77 0 00-.823 1.028c-.205.424-.302.932-.29 1.537l.145 10.926-4.706.072c-.11-6.062-.23-12.124-.339-18.185l4.598-.073M159.974 34.033c-.073-.532-.194-.98-.363-1.355-.182-.363-.412-.653-.726-.847-.315-.181-.714-.29-1.198-.29s-.883.109-1.198.327a2.275 2.275 0 00-.738.847c-.193.35-.327.738-.4 1.161a6.675 6.675 0 00-.12 1.283v.713c1.621 0 3.242 0 4.876.013a23.825 23.825 0 00-.133-1.851m-4.731 6.061c0 .545.036 1.077.121 1.573.085.508.206.968.387 1.355.194.4.424.714.726.944.303.242.666.363 1.101.363.787 0 1.38-.278 1.742-.847.363-.556.617-1.416.763-2.565 1.415 0 2.843.012 4.259.025-.11 2.117-.69 3.726-1.743 4.815-1.064 1.101-2.71 1.646-4.96 1.646-1.706 0-3.037-.278-3.993-.847-.956-.557-1.67-1.295-2.13-2.214-.46-.92-.75-1.96-.859-3.11a41.072 41.072 0 01-.181-3.448c-.013-1.21.072-2.384.242-3.509.157-1.137.496-2.141 1.016-3.025a5.666 5.666 0 012.226-2.105c.98-.52 2.275-.774 3.896-.774 1.404 0 2.54.218 3.436.665.884.448 1.585 1.065 2.093 1.876.497.798.835 1.778 1.017 2.916.17 1.137.254 2.407.242 3.799 0 .35 0 .702-.013 1.052-3.133-.024-6.267-.036-9.4-.036 0 .484.012.98.012 1.452M171.806 42.52c.302 1.004.956 1.525 1.984 1.537 1.04.024 1.73-.472 2.07-1.464.326-.992.507-2.48.556-4.465.036-1.984-.085-3.484-.375-4.489-.29-1.004-.968-1.524-2.033-1.548-1.04-.013-1.73.472-2.057 1.476-.327.992-.496 2.48-.532 4.464-.037 1.985.096 3.485.387 4.49m4.598 2.77c-.545.847-1.15 1.428-1.803 1.754-.653.327-1.452.484-2.408.472-1.936-.036-3.351-.786-4.247-2.262-.883-1.477-1.319-3.908-1.282-7.284.036-3.376.52-5.82 1.464-7.308.943-1.488 2.407-2.214 4.38-2.178.907.012 1.67.206 2.31.58.63.376 1.186.92 1.683 1.658h.072c.048-2.54.109-5.093.157-7.634l4.84.109c-.218 8.046-.423 16.092-.641 24.126-1.5-.037-3-.073-4.501-.097.012-.641.025-1.283.036-1.936h-.06M193.27 34.746c-.047-.533-.144-.993-.302-1.368s-.399-.665-.702-.87c-.302-.206-.701-.315-1.185-.327-.484-.025-.883.072-1.21.278a2.373 2.373 0 00-.775.81c-.193.351-.338.726-.435 1.15a6.764 6.764 0 00-.157 1.282l-.037.714c1.634.049 3.255.121 4.876.182 0-.702-.025-1.32-.072-1.851m-4.949 5.892c-.012.544.012 1.064.073 1.573.06.508.181.968.35 1.367.17.4.4.726.678.968.29.254.653.387 1.089.399.798.025 1.391-.23 1.778-.774.388-.557.666-1.404.847-2.541 1.428.048 2.844.109 4.26.17-.182 2.117-.823 3.702-1.924 4.754-1.09 1.065-2.759 1.55-5.01 1.464-1.705-.06-3.024-.387-3.956-.98-.944-.592-1.621-1.367-2.057-2.298-.423-.932-.678-1.985-.738-3.134a36.495 36.495 0 01-.06-3.448c.036-1.222.157-2.384.363-3.51.205-1.124.58-2.117 1.125-2.976.556-.859 1.319-1.536 2.31-2.02s2.3-.702 3.92-.641c1.392.048 2.53.314 3.4.786a5.087 5.087 0 012.033 1.948c.472.823.775 1.803.908 2.952.133 1.138.169 2.408.109 3.812-.013.35-.037.69-.049 1.04-3.133-.133-6.267-.254-9.389-.363-.024.484-.036.968-.06 1.452M205.289 30.1l-.11 2.129h.073c.557-.871 1.246-1.488 2.081-1.863s1.779-.533 2.82-.472c1.524.084 2.685.568 3.448 1.428.774.859 1.1 2.202.992 4.017-.278 4.488-.557 8.977-.847 13.466-1.56-.096-3.134-.193-4.694-.278.241-4.174.471-8.348.713-12.523.06-.944-.072-1.609-.375-2.008-.302-.387-.81-.605-1.524-.642-1.682-.096-2.577.872-2.686 2.868-.206 4.017-.424 8.034-.63 12.063-1.572-.085-3.133-.17-4.706-.242.29-6.05.569-12.112.86-18.173 1.524.084 3.06.157 4.585.23M232.112 34.126a664.736 664.736 0 00-4.864-.556c.11-1.053.23-2.106.351-3.158.146.012.303.025.448.048 1.67.182 3.013.036 4.041-.46 1.029-.496 1.754-1.391 2.166-2.71 1.234.157 2.456.303 3.69.448-.968 7.925-1.936 15.838-2.916 23.763-1.621-.206-3.255-.4-4.876-.593.654-5.59 1.307-11.192 1.96-16.782M247.878 40.507c.315.75.956 1.198 1.912 1.33.992.134 1.73-.12 2.238-.75.508-.64.883-1.766 1.101-3.363.097-.665.145-1.307.157-1.887.013-.593-.048-1.114-.181-1.55a2.463 2.463 0 00-.702-1.088c-.314-.278-.774-.46-1.343-.544-.605-.085-1.1-.037-1.488.157-.387.181-.702.484-.944.883-.242.4-.435.871-.568 1.44a20.992 20.992 0 00-.34 1.839c-.217 1.61-.157 2.795.158 3.533m-.956 9.038c.254.545.799.871 1.61.98.653.097 1.197.013 1.62-.23.436-.254.787-.629 1.078-1.125.29-.508.52-1.125.69-1.851.18-.726.326-1.525.447-2.396.048-.387.109-.762.157-1.137-.025-.012-.048-.012-.072-.012-.484.544-1.138.943-1.96 1.21-.81.266-1.767.314-2.856.169-1.077-.145-1.96-.448-2.662-.92a4.756 4.756 0 01-1.62-1.778c-.388-.726-.63-1.549-.727-2.48-.109-.932-.084-1.936.049-3.013.363-2.747 1.258-4.768 2.71-6.062 1.452-1.282 3.57-1.742 6.34-1.367 1.718.242 3.037.738 3.968 1.5.932.762 1.597 1.682 1.997 2.783.387 1.089.568 2.323.532 3.678a37.096 37.096 0 01-.363 4.223 86.099 86.099 0 01-.871 4.876c-.339 1.548-.847 2.891-1.525 4.029-.69 1.125-1.621 1.972-2.819 2.516-1.198.545-2.77.678-4.73.412a12.354 12.354 0 01-2.457-.593 5.175 5.175 0 01-1.996-1.222c-.544-.532-.956-1.21-1.234-2.033-.266-.822-.351-1.802-.218-2.94l4.695.617c-.122.896-.049 1.622.217 2.166M257.108 54.476c.146-1.053.4-2.02.75-2.904s.811-1.694 1.38-2.456a13.533 13.533 0 012.02-2.178 25.49 25.49 0 012.71-2.032c.75-.496 1.5-.993 2.263-1.5.617-.376 1.125-.75 1.525-1.09a5.61 5.61 0 00.955-1.089c.242-.363.436-.786.57-1.246.132-.447.241-.98.338-1.585.314-1.96-.339-3.06-1.96-3.315-.617-.097-1.125-.048-1.525.133a2.524 2.524 0 00-.98.884 4.82 4.82 0 00-.605 1.403 21.729 21.729 0 00-.35 1.766c-1.586-.241-3.17-.483-4.743-.713.036-.303.084-.605.12-.908.327-2.202 1.199-3.811 2.59-4.803 1.404-1.004 3.424-1.307 6.05-.896 2.504.388 4.258 1.247 5.275 2.553 1.028 1.307 1.355 2.989 1.016 5.058a10.603 10.603 0 01-.544 2.093 8.45 8.45 0 01-.968 1.779 9.066 9.066 0 01-1.44 1.56 17.77 17.77 0 01-2.033 1.476c-1.04.678-2.069 1.356-3.11 2.033-.822.533-1.487 1.077-1.996 1.621-.496.557-.847 1.041-1.028 1.464 3.025.472 6.037.956 9.05 1.44-.205 1.246-.399 2.493-.605 3.739a1031.69 1031.69 0 00-14.724-2.287M281.702 41.281c-1.61-.278-3.219-.556-4.84-.823.181-1.04.35-2.08.532-3.133l.436.072c1.657.278 3.013.206 4.065-.23 1.065-.435 1.827-1.294 2.311-2.589 1.222.206 2.444.424 3.666.641-1.391 7.853-2.783 15.717-4.186 23.57-1.61-.29-3.23-.569-4.852-.847.956-5.554 1.924-11.107 2.868-16.66" fill="#ffdc00"/><path d="M85.946 71.326s12.16-.98 14.713-1.125v98.754h49.304v14.616H85.946V71.328M80.154 71.914S68.539 73.27 65.44 73.73v95.125H19.296s1.694 10.877 2.48 14.712h58.38V71.914M80.06 189.368v115.486s-13.466-17.882-14.712-19.685v-81.09H26.594s-3.4-13.455-3.679-14.713H80.06M85.946 189.523h64.017v14.712h-49.304v122.88s-13.588-13.938-14.713-15.22V189.521"/></g></svg>