<?xml version="1.0" encoding="utf-8"?>
<svg xmlns="http://www.w3.org/2000/svg" width="187.087" height="187.087" overflow="visible"><path fill-rule="evenodd" clip-rule="evenodd" d="M187.087 93.543c0 51.664-41.881 93.543-93.543 93.543S0 145.207 0 93.543C0 41.881 41.881 0 93.543 0s93.544 41.881 93.544 93.543z"/><path fill-rule="evenodd" clip-rule="evenodd" fill="#FFF" d="M172.119 93.543c0 43.397-35.178 78.577-78.576 78.577-43.397 0-78.577-35.18-78.577-78.577s35.18-78.576 78.577-78.576c43.398 0 78.576 35.179 78.576 78.576z"/><path fill-rule="evenodd" clip-rule="evenodd" d="M43.067 107.552s5.726 11.52 14.471 19.565c2.895 2.663 5.673-.115 5.673-.115s14.419-14.318 15.166-24.775c.579-8.104-2.779-11.924-2.779-11.924s-6.949-9.607-11.809-15.05c-2.895-3.242.232-6.368.232-6.368s2.894-4.515 5.441-.579c2.547 3.936 3.589 5.557 3.589 5.557s1.042 2.894 4.399-.348 4.168-3.705 5.441-5.789c1.274-2.084 1.505-4.167-1.042-7.525-2.547-3.358-7.988-11.462-9.493-12.967-1.505-1.505-3.474-3.705-7.873.348-4.399 4.052-12.271 11.23-16.787 19.797-3.357 6.367 1.737 12.966 1.737 12.966s5.343 8.073 12.966 16.787c2.431 2.778.347 7.062.347 7.062s-1.389 3.82-4.631-.231c0 0-4.515-6.252-5.326-7.641-.81-1.39-1.852-3.357-4.515-1.158-2.663 2.2-5.673 5.326-5.673 5.326s-2.312 1.389.466 7.062z"/><path fill-rule="evenodd" clip-rule="evenodd" d="M93.543 121.329c13.429 24.543 29.836 37.792 29.836 37.792 24.889-11.342 42.191-36.439 42.191-65.578 0-27.167-15.04-50.821-37.248-63.09l-7.921 10.452s29.946 17.134 29.946 50.939c0 0-.155 32.262-26.242 47.699 0 0-22.845-20.53-22.845-45.847V34.269H85.825v59.429c0 25.316-22.846 45.847-22.846 45.847-26.087-15.437-26.242-47.699-26.242-47.699 0-33.805 29.946-50.939 29.946-50.939l-7.921-10.452c-22.208 12.269-37.249 35.923-37.249 63.09 0 29.138 17.303 54.236 42.193 65.578.002-.002 16.408-13.251 29.837-37.794z"/><path fill-rule="evenodd" clip-rule="evenodd" d="M131.672 127.194s20.915-25.547 12.348-50.477h-19.294l.153 7.564s0 5.248 3.551 5.248l2.623-.154s.231 11.809-3.937 19.218c0 0-10.65-14.355-5.479-41.138l6.02 6.638 11.577-7.873s-3.782-8.799-13.583-16.826c-4.162-3.408-9.108 1.234-9.108 1.234s-9.339 7.024-10.497 19.141c0 0-3.549 29.021 6.021 45.537 0 0 3.184 6.558 11.577 14.048 3.588 3.205 8.028-2.16 8.028-2.16zM91 146.653c-1.781-2.494-4.055-3.758-6.757-3.758-2.837 0-5.133 1.482-6.639 4.288-1.395 2.602-1.923 5.973-1.569 10.02.337 3.856 1.355 6.974 3.025 9.266 1.794 2.464 4.122 3.713 6.919 3.713 1.946 0 4.656-.745 6.508-4.293 1.352-2.595 1.857-5.969 1.501-10.03-.332-3.796-1.337-6.893-2.988-9.206zm-4.72 16.997c-.147.739-.328.977-.382 1.035-.21-.011-.561-.421-.884-1.34-.493-1.399-.896-3.843-1.195-7.266-.15-1.717-.226-3.17-.226-4.351 0-.99.053-1.789.159-2.389.11-.625.258-.897.327-.996.291.027.653.535.957 1.368.514 1.416.931 3.917 1.239 7.437.132 1.512.198 2.815.198 3.905.001 1.079-.063 1.946-.193 2.597zm26.06-8.407c-.315-3.623-1.312-6.58-2.962-8.785-1.765-2.363-3.995-3.563-6.626-3.563-2.564 0-4.618 1.002-6.103 2.979-1.42 1.893-2.014 4.29-1.766 7.125.203 2.313.951 4.224 2.225 5.683 1.354 1.546 3.043 2.331 5.021 2.331.923 0 1.789-.211 2.585-.617-.023 1.378-.174 2.207-.329 2.668-.277.813-.628.879-.993.879-.11 0-.539-.045-1.413-.63-1.185-.792-1.89-1.1-2.52-1.1-.942 0-1.726.449-2.204 1.269-.372.64-.519 1.436-.438 2.368.115 1.308.696 2.413 1.681 3.198.942.752 2.155 1.133 3.599 1.133 1.537 0 3.029-.39 4.436-1.158a10.115 10.115 0 0 0 3.473-3.15c.908-1.338 1.576-2.973 1.988-4.868.402-1.859.518-3.798.346-5.762zm-9.385-.815c-.252-.425-.579-1.274-.724-2.911a11.3 11.3 0 0 1-.044-.927c0-.818.12-1.303.237-1.581.089-.214.157-.271.164-.274l.042-.004c.148 0 .458 0 .817.793.288.634.684 2.005.939 4.915l.014.17a2.51 2.51 0 0 1-.345.223l-.004.001a.924.924 0 0 1-.425.116c-.127-.001-.365-.001-.671-.521z"/></svg>